{
    "asset" : {
        "generator" : "Khronos glTF Blender I/O v3.4.50",
        "version" : "2.0"
    },
    "extensionsUsed" : [
        "KHR_materials_specular",
        "KHR_materials_ior"
    ],
    "scene" : 0,
    "scenes" : [
        {
            "name" : "Scene",
            "nodes" : [
                0,
                1,
                2,
                3,
                4,
                5,
                6,
                7,
                8
            ]
        }
    ],
    "nodes" : [
        {
            "mesh" : 0,
            "name" : "Cylinder001",
            "rotation" : [
                0,
                0,
                -0.4774538278579712,
                0.8786568641662598
            ],
            "scale" : [
                0.012036238797008991,
                0.014401489868760109,
                0.014401491731405258
            ],
            "translation" : [
                42.15826416015625,
                10.972941398620605,
                0.5563521981239319
            ]
        },
        {
            "mesh" : 1,
            "name" : "At Rate (1)",
            "rotation" : [
                0.46168437600135803,
                -0.5355815291404724,
                0.4616844058036804,
                0.5355815291404724
            ],
            "scale" : [
                0.8286499977111816,
                0.8286501169204712,
                0.8286501169204712
            ],
            "translation" : [
                51.25067138671875,
                9.929963111877441,
                0.7052326202392578
            ]
        },
        {
            "mesh" : 2,
            "name" : "Cube.025",
            "scale" : [
                1.723433017730713,
                2.0135979652404785,
                1.3035252094268799
            ],
            "translation" : [
                46.927974700927734,
                10.09758186340332,
                0.2714501619338989
            ]
        },
        {
            "mesh" : 3,
            "name" : "Cube.026",
            "scale" : [
                1.7235857248306274,
                2.0137763023376465,
                1.3036408424377441
            ],
            "translation" : [
                46.927974700927734,
                6.496640205383301,
                0.2714501619338989
            ]
        },
        {
            "mesh" : 4,
            "name" : "Cylinder.025",
            "rotation" : [
                0.7071068286895752,
                0,
                0,
                0.7071068286895752
            ],
            "scale" : [
                1.0165377855300903,
                1.0165377855300903,
                1.0165377855300903
            ],
            "translation" : [
                42.593772888183594,
                10.147865295410156,
                0.13619783520698547
            ]
        },
        {
            "mesh" : 5,
            "name" : "Cylinder.027",
            "rotation" : [
                0.7071068286895752,
                0,
                0,
                0.7071068286895752
            ],
            "scale" : [
                1.0165377855300903,
                1.0165377855300903,
                1.0165377855300903
            ],
            "translation" : [
                46.94960403442383,
                13.956066131591797,
                0.2994256019592285
            ]
        },
        {
            "mesh" : 6,
            "name" : "Cylinder.028",
            "rotation" : [
                0.7071068286895752,
                0,
                0,
                0.7071068286895752
            ],
            "scale" : [
                1.0165377855300903,
                1.0165377855300903,
                1.0165377855300903
            ],
            "translation" : [
                51.206153869628906,
                10.04410171508789,
                0.35870033502578735
            ]
        },
        {
            "mesh" : 7,
            "name" : "Cube.086",
            "rotation" : [
                0,
                0,
                1,
                1.6292067073209182e-07
            ],
            "scale" : [
                0.5003315210342407,
                0.5003315210342407,
                0.12034375220537186
            ],
            "translation" : [
                46.93714904785156,
                14.114337921142578,
                0.6765356659889221
            ]
        },
        {
            "mesh" : 8,
            "name" : "Cube.087",
            "scale" : [
                0.9951387047767639,
                0.7937476634979248,
                0.11182505637407303
            ],
            "translation" : [
                46.918983459472656,
                13.852487564086914,
                0.6702598333358765
            ]
        }
    ],
    "materials" : [
        {
            "doubleSided" : true,
            "extensions" : {
                "KHR_materials_specular" : {
                    "specularColorFactor" : [
                        0.247281732502954,
                        0.247281732502954,
                        0.247281732502954
                    ]
                },
                "KHR_materials_ior" : {
                    "ior" : 1.4500000476837158
                }
            },
            "name" : "GREEN",
            "pbrMetallicRoughness" : {
                "baseColorFactor" : [
                    0.21780598163604736,
                    0.5028864741325378,
                    0.06490469723939896,
                    1
                ],
                "metallicFactor" : 0,
                "roughnessFactor" : 0.42500004172325134
            }
        },
        {
            "doubleSided" : true,
            "extensions" : {
                "KHR_materials_specular" : {
                    "specularColorFactor" : [
                        0.247281732502954,
                        0.247281732502954,
                        0.247281732502954
                    ]
                },
                "KHR_materials_ior" : {
                    "ior" : 1.4500000476837158
                }
            },
            "name" : "BLUE",
            "pbrMetallicRoughness" : {
                "baseColorFactor" : [
                    0.011612191796302795,
                    0.17788848280906677,
                    0.5028865337371826,
                    1
                ],
                "metallicFactor" : 0,
                "roughnessFactor" : 0.3340910077095032
            }
        },
        {
            "doubleSided" : true,
            "name" : "White",
            "pbrMetallicRoughness" : {
                "metallicFactor" : 0,
                "roughnessFactor" : 0.5
            }
        },
        {
            "doubleSided" : true,
            "name" : "Yellow",
            "pbrMetallicRoughness" : {
                "baseColorFactor" : [
                    1,
                    0.7327131032943726,
                    0.002767629688605666,
                    1
                ],
                "metallicFactor" : 0,
                "roughnessFactor" : 0.5
            }
        },
        {
            "doubleSided" : true,
            "name" : "Yellow.001",
            "pbrMetallicRoughness" : {
                "baseColorFactor" : [
                    0.8883619904518127,
                    0.7708200812339783,
                    0.015049674548208714,
                    1
                ],
                "metallicFactor" : 0,
                "roughnessFactor" : 0.5
            }
        }
    ],
    "meshes" : [
        {
            "name" : "Mesh",
            "primitives" : [
                {
                    "attributes" : {
                        "POSITION" : 0,
                        "TEXCOORD_0" : 1,
                        "NORMAL" : 2
                    },
                    "indices" : 3,
                    "material" : 0
                }
            ]
        },
        {
            "name" : "At Rate (1)",
            "primitives" : [
                {
                    "attributes" : {
                        "POSITION" : 4,
                        "TEXCOORD_0" : 5,
                        "NORMAL" : 6
                    },
                    "indices" : 7,
                    "material" : 0
                }
            ]
        },
        {
            "name" : "Cube.033",
            "primitives" : [
                {
                    "attributes" : {
                        "POSITION" : 8,
                        "TEXCOORD_0" : 9,
                        "NORMAL" : 10
                    },
                    "indices" : 11,
                    "material" : 1
                }
            ]
        },
        {
            "name" : "Cube.034",
            "primitives" : [
                {
                    "attributes" : {
                        "POSITION" : 12,
                        "TEXCOORD_0" : 13,
                        "NORMAL" : 14
                    },
                    "indices" : 15,
                    "material" : 1
                }
            ]
        },
        {
            "name" : "Cylinder.027",
            "primitives" : [
                {
                    "attributes" : {
                        "POSITION" : 16,
                        "TEXCOORD_0" : 17,
                        "NORMAL" : 18
                    },
                    "indices" : 19,
                    "material" : 2
                }
            ]
        },
        {
            "name" : "Cylinder.028",
            "primitives" : [
                {
                    "attributes" : {
                        "POSITION" : 20,
                        "TEXCOORD_0" : 21,
                        "NORMAL" : 22
                    },
                    "indices" : 19,
                    "material" : 2
                }
            ]
        },
        {
            "name" : "Cylinder.029",
            "primitives" : [
                {
                    "attributes" : {
                        "POSITION" : 23,
                        "TEXCOORD_0" : 24,
                        "NORMAL" : 25
                    },
                    "indices" : 19,
                    "material" : 2
                }
            ]
        },
        {
            "name" : "Cube.093",
            "primitives" : [
                {
                    "attributes" : {
                        "POSITION" : 26,
                        "TEXCOORD_0" : 27,
                        "NORMAL" : 28
                    },
                    "indices" : 29,
                    "material" : 3
                }
            ]
        },
        {
            "name" : "Cube.094",
            "primitives" : [
                {
                    "attributes" : {
                        "POSITION" : 30,
                        "TEXCOORD_0" : 31,
                        "NORMAL" : 32
                    },
                    "indices" : 33,
                    "material" : 4
                }
            ]
        }
    ],
    "accessors" : [
        {
            "bufferView" : 0,
            "componentType" : 5126,
            "count" : 10080,
            "max" : [
                182.02076721191406,
                18.156049728393555,
                26.7314510345459
            ],
            "min" : [
                -25.41676139831543,
                -44.909812927246094,
                -26.7314510345459
            ],
            "type" : "VEC3"
        },
        {
            "bufferView" : 1,
            "componentType" : 5126,
            "count" : 10080,
            "type" : "VEC2"
        },
        {
            "bufferView" : 2,
            "componentType" : 5126,
            "count" : 10080,
            "type" : "VEC3"
        },
        {
            "bufferView" : 3,
            "componentType" : 5123,
            "count" : 60096,
            "type" : "SCALAR"
        },
        {
            "bufferView" : 4,
            "componentType" : 5126,
            "count" : 2123,
            "max" : [
                0.204814150929451,
                1.4161930084228516,
                1.238426923751831
            ],
            "min" : [
                -0.21765784919261932,
                -1.2251759767532349,
                -1.436135172843933
            ],
            "type" : "VEC3"
        },
        {
            "bufferView" : 5,
            "componentType" : 5126,
            "count" : 2123,
            "type" : "VEC2"
        },
        {
            "bufferView" : 6,
            "componentType" : 5126,
            "count" : 2123,
            "type" : "VEC3"
        },
        {
            "bufferView" : 7,
            "componentType" : 5123,
            "count" : 12600,
            "type" : "SCALAR"
        },
        {
            "bufferView" : 8,
            "componentType" : 5126,
            "count" : 14,
            "max" : [
                1,
                1,
                1
            ],
            "min" : [
                -1,
                -1,
                -1
            ],
            "type" : "VEC3"
        },
        {
            "bufferView" : 9,
            "componentType" : 5126,
            "count" : 14,
            "type" : "VEC2"
        },
        {
            "bufferView" : 10,
            "componentType" : 5126,
            "count" : 14,
            "type" : "VEC3"
        },
        {
            "bufferView" : 11,
            "componentType" : 5123,
            "count" : 36,
            "type" : "SCALAR"
        },
        {
            "bufferView" : 12,
            "componentType" : 5126,
            "count" : 39,
            "max" : [
                1.941328763961792,
                1,
                1.7261892557144165
            ],
            "min" : [
                -1.9413268566131592,
                -1,
                -1.7261892557144165
            ],
            "type" : "VEC3"
        },
        {
            "bufferView" : 13,
            "componentType" : 5126,
            "count" : 39,
            "type" : "VEC2"
        },
        {
            "bufferView" : 14,
            "componentType" : 5126,
            "count" : 39,
            "type" : "VEC3"
        },
        {
            "bufferView" : 15,
            "componentType" : 5123,
            "count" : 132,
            "type" : "SCALAR"
        },
        {
            "bufferView" : 16,
            "componentType" : 5126,
            "count" : 628,
            "max" : [
                1.5588561296463013,
                0.28645995259284973,
                1.5588561296463013
            ],
            "min" : [
                -1.5588561296463013,
                -0.28645995259284973,
                -1.5588561296463013
            ],
            "type" : "VEC3"
        },
        {
            "bufferView" : 17,
            "componentType" : 5126,
            "count" : 628,
            "type" : "VEC2"
        },
        {
            "bufferView" : 18,
            "componentType" : 5126,
            "count" : 628,
            "type" : "VEC3"
        },
        {
            "bufferView" : 19,
            "componentType" : 5123,
            "count" : 2292,
            "type" : "SCALAR"
        },
        {
            "bufferView" : 20,
            "componentType" : 5126,
            "count" : 628,
            "max" : [
                1.5588561296463013,
                0.28645995259284973,
                1.5588561296463013
            ],
            "min" : [
                -1.5588561296463013,
                -0.28645995259284973,
                -1.5588561296463013
            ],
            "type" : "VEC3"
        },
        {
            "bufferView" : 21,
            "componentType" : 5126,
            "count" : 628,
            "type" : "VEC2"
        },
        {
            "bufferView" : 22,
            "componentType" : 5126,
            "count" : 628,
            "type" : "VEC3"
        },
        {
            "bufferView" : 23,
            "componentType" : 5126,
            "count" : 628,
            "max" : [
                1.5588561296463013,
                0.28645995259284973,
                1.5588561296463013
            ],
            "min" : [
                -1.5588561296463013,
                -0.28645995259284973,
                -1.5588561296463013
            ],
            "type" : "VEC3"
        },
        {
            "bufferView" : 24,
            "componentType" : 5126,
            "count" : 628,
            "type" : "VEC2"
        },
        {
            "bufferView" : 25,
            "componentType" : 5126,
            "count" : 628,
            "type" : "VEC3"
        },
        {
            "bufferView" : 26,
            "componentType" : 5126,
            "count" : 35,
            "max" : [
                2.174387216567993,
                0.9867942929267883,
                1.7217600345611572
            ],
            "min" : [
                -2.174387216567993,
                -1.0970697402954102,
                -1
            ],
            "type" : "VEC3"
        },
        {
            "bufferView" : 27,
            "componentType" : 5126,
            "count" : 35,
            "type" : "VEC2"
        },
        {
            "bufferView" : 28,
            "componentType" : 5126,
            "count" : 35,
            "type" : "VEC3"
        },
        {
            "bufferView" : 29,
            "componentType" : 5123,
            "count" : 132,
            "type" : "SCALAR"
        },
        {
            "bufferView" : 30,
            "componentType" : 5126,
            "count" : 48,
            "max" : [
                1,
                1,
                1
            ],
            "min" : [
                -1,
                -0.8214083313941956,
                -1
            ],
            "type" : "VEC3"
        },
        {
            "bufferView" : 31,
            "componentType" : 5126,
            "count" : 48,
            "type" : "VEC2"
        },
        {
            "bufferView" : 32,
            "componentType" : 5126,
            "count" : 48,
            "type" : "VEC3"
        },
        {
            "bufferView" : 33,
            "componentType" : 5123,
            "count" : 180,
            "type" : "SCALAR"
        }
    ],
    "bufferViews" : [
        {
            "buffer" : 0,
            "byteLength" : 120960,
            "byteOffset" : 0,
            "target" : 34962
        },
        {
            "buffer" : 0,
            "byteLength" : 80640,
            "byteOffset" : 120960,
            "target" : 34962
        },
        {
            "buffer" : 0,
            "byteLength" : 120960,
            "byteOffset" : 201600,
            "target" : 34962
        },
        {
            "buffer" : 0,
            "byteLength" : 120192,
            "byteOffset" : 322560,
            "target" : 34963
        },
        {
            "buffer" : 0,
            "byteLength" : 25476,
            "byteOffset" : 442752,
            "target" : 34962
        },
        {
            "buffer" : 0,
            "byteLength" : 16984,
            "byteOffset" : 468228,
            "target" : 34962
        },
        {
            "buffer" : 0,
            "byteLength" : 25476,
            "byteOffset" : 485212,
            "target" : 34962
        },
        {
            "buffer" : 0,
            "byteLength" : 25200,
            "byteOffset" : 510688,
            "target" : 34963
        },
        {
            "buffer" : 0,
            "byteLength" : 168,
            "byteOffset" : 535888,
            "target" : 34962
        },
        {
            "buffer" : 0,
            "byteLength" : 112,
            "byteOffset" : 536056,
            "target" : 34962
        },
        {
            "buffer" : 0,
            "byteLength" : 168,
            "byteOffset" : 536168,
            "target" : 34962
        },
        {
            "buffer" : 0,
            "byteLength" : 72,
            "byteOffset" : 536336,
            "target" : 34963
        },
        {
            "buffer" : 0,
            "byteLength" : 468,
            "byteOffset" : 536408,
            "target" : 34962
        },
        {
            "buffer" : 0,
            "byteLength" : 312,
            "byteOffset" : 536876,
            "target" : 34962
        },
        {
            "buffer" : 0,
            "byteLength" : 468,
            "byteOffset" : 537188,
            "target" : 34962
        },
        {
            "buffer" : 0,
            "byteLength" : 264,
            "byteOffset" : 537656,
            "target" : 34963
        },
        {
            "buffer" : 0,
            "byteLength" : 7536,
            "byteOffset" : 537920,
            "target" : 34962
        },
        {
            "buffer" : 0,
            "byteLength" : 5024,
            "byteOffset" : 545456,
            "target" : 34962
        },
        {
            "buffer" : 0,
            "byteLength" : 7536,
            "byteOffset" : 550480,
            "target" : 34962
        },
        {
            "buffer" : 0,
            "byteLength" : 4584,
            "byteOffset" : 558016,
            "target" : 34963
        },
        {
            "buffer" : 0,
            "byteLength" : 7536,
            "byteOffset" : 562600,
            "target" : 34962
        },
        {
            "buffer" : 0,
            "byteLength" : 5024,
            "byteOffset" : 570136,
            "target" : 34962
        },
        {
            "buffer" : 0,
            "byteLength" : 7536,
            "byteOffset" : 575160,
            "target" : 34962
        },
        {
            "buffer" : 0,
            "byteLength" : 7536,
            "byteOffset" : 582696,
            "target" : 34962
        },
        {
            "buffer" : 0,
            "byteLength" : 5024,
            "byteOffset" : 590232,
            "target" : 34962
        },
        {
            "buffer" : 0,
            "byteLength" : 7536,
            "byteOffset" : 595256,
            "target" : 34962
        },
        {
            "buffer" : 0,
            "byteLength" : 420,
            "byteOffset" : 602792,
            "target" : 34962
        },
        {
            "buffer" : 0,
            "byteLength" : 280,
            "byteOffset" : 603212,
            "target" : 34962
        },
        {
            "buffer" : 0,
            "byteLength" : 420,
            "byteOffset" : 603492,
            "target" : 34962
        },
        {
            "buffer" : 0,
            "byteLength" : 264,
            "byteOffset" : 603912,
            "target" : 34963
        },
        {
            "buffer" : 0,
            "byteLength" : 576,
            "byteOffset" : 604176,
            "target" : 34962
        },
        {
            "buffer" : 0,
            "byteLength" : 384,
            "byteOffset" : 604752,
            "target" : 34962
        },
        {
            "buffer" : 0,
            "byteLength" : 576,
            "byteOffset" : 605136,
            "target" : 34962
        },
        {
            "buffer" : 0,
            "byteLength" : 360,
            "byteOffset" : 605712,
            "target" : 34963
        }
    ],
    "buffers" : [
        {
            "byteLength" : 606072,
            "uri" : "2.bin"
        }
    ]
}
